<svg xmlns="http://www.w3.org/2000/svg" viewBox="0 0 2800 1000"><defs><style>.ec7b425a-2f21-4b62-bbda-8b8b703671a6{fill:#7466d8;}.b88d7f2d-0624-477d-8f01-28efcef769a5{fill:none;stroke:#fff;stroke-linecap:round;stroke-linejoin:round;stroke-width:28px;}.a9f38b1d-7044-4749-b3a2-547124642caa,.ecdc037d-1dbc-4ff6-906e-52223fc9a773{fill:#fff;}.a9f38b1d-7044-4749-b3a2-547124642caa{opacity:0.1;}</style></defs><g id="afa42e29-04aa-4a4c-9502-b22fe73fec13" data-name="BG"><rect class="ec7b425a-2f21-4b62-bbda-8b8b703671a6" width="2800" height="1000"/></g><g id="f64ea2fe-acf5-4e8b-8e5f-fdbaf05a76a1" data-name="Doctor"><rect class="b88d7f2d-0624-477d-8f01-28efcef769a5" x="291" y="157" width="509" height="509"/><rect class="b88d7f2d-0624-477d-8f01-28efcef769a5" x="291" y="157" width="509" height="163"/><rect class="a9f38b1d-7044-4749-b3a2-547124642caa" x="291" y="157" width="509" height="163"/><path class="ecdc037d-1dbc-4ff6-906e-52223fc9a773" d="M391.3,214.21a68.72,68.72,0,0,0-.72-11.76c3.2.16,5.2.24,11.84.24h16.72c9.84,0,17.76,2.72,23.12,7.92,5.84,5.76,8.8,14.16,8.8,24.8,0,11-3.2,19.76-9.28,25.84-5.36,5.28-13,8-22.48,8H402.42c-6.16,0-8.4.08-11.76.24a76.35,76.35,0,0,0,.64-11.68Zm26.56,41c5.2,0,8.88-1.36,11.76-4.24,3.28-3.36,5-8.72,5-15.36,0-6.8-1.52-11.76-4.64-14.88-2.8-2.8-6.64-4.08-12.4-4.08H407.14v38.56Z" transform="translate(0)"/><path class="ecdc037d-1dbc-4ff6-906e-52223fc9a773" d="M456.26,244.77c0-16,10.24-26.16,26.4-26.16s26.4,10.16,26.4,26-10.56,26.48-26.48,26.48C466.5,271.09,456.26,260.85,456.26,244.77Zm15.28-.08c0,8.88,4.16,14.24,11.12,14.24s11-5.2,11-14.08-4.08-14.24-10.88-14.24C475.7,230.61,471.54,235.89,471.54,244.69Z" transform="translate(0)"/><path class="ecdc037d-1dbc-4ff6-906e-52223fc9a773" d="M548.26,238.21a11.27,11.27,0,0,0-2.24-4.72,8.46,8.46,0,0,0-6.72-2.8c-6.48,0-10.32,5.12-10.32,13.92,0,8.64,4.08,14.24,10.48,14.24a9.24,9.24,0,0,0,7.6-3.52,7.87,7.87,0,0,0,1.44-3.68L563.22,254a24.12,24.12,0,0,1-3.36,7.92c-4,5.92-11.28,9.2-20.56,9.2-7.68,0-14.24-2.4-18.64-6.88-4.64-4.56-7.2-11.6-7.2-19.44,0-16,10.08-26.24,25.68-26.24,12.32,0,20.88,6.08,23.52,16.72Z" transform="translate(0)"/><path class="ecdc037d-1dbc-4ff6-906e-52223fc9a773" d="M575.78,218.77a81.54,81.54,0,0,0-.64-11h16.32a93,93,0,0,0-.64,11v1.68h2.88a54.68,54.68,0,0,0,7.84-.4v13.28a51.68,51.68,0,0,0-7.36-.48h-3.36v20.48c0,2.24.4,3.36,1.44,4.08a7,7,0,0,0,3.68.88,11,11,0,0,0,5.6-1.44l1.2,12.16a34.41,34.41,0,0,1-11,1.6c-5.44,0-9.2-.88-11.76-2.8-3-2.32-4.16-5-4.16-10.48V232.85h-3a48.36,48.36,0,0,0-7,.48V220a48.24,48.24,0,0,0,7.12.48h2.88Z" transform="translate(0)"/><path class="ecdc037d-1dbc-4ff6-906e-52223fc9a773" d="M605.7,244.77c0-16,10.24-26.16,26.4-26.16s26.4,10.16,26.4,26S647.94,271.09,632,271.09C615.94,271.09,605.7,260.85,605.7,244.77Zm15.28-.08c0,8.88,4.16,14.24,11.12,14.24s11-5.2,11-14.08-4.08-14.24-10.88-14.24C625.14,230.61,621,235.89,621,244.69Z" transform="translate(0)"/><path class="ecdc037d-1dbc-4ff6-906e-52223fc9a773" d="M701,234.85a25.82,25.82,0,0,0-8.16-1.52,11.49,11.49,0,0,0-9.52,4.32c-1.52,1.92-2.08,3.6-2.4,7.12v12.48a87.49,87.49,0,0,0,.64,12H665a89.49,89.49,0,0,0,.64-12.08V232.53a78.83,78.83,0,0,0-.64-12.08H680.9v6.32c3.92-5.12,8.72-7.28,16-7.28a32.3,32.3,0,0,1,7.92,1Z" transform="translate(0)"/><line class="b88d7f2d-0624-477d-8f01-28efcef769a5" x1="386" y1="406" x2="504" y2="406"/><line class="b88d7f2d-0624-477d-8f01-28efcef769a5" x1="386" y1="468" x2="504" y2="468"/><line class="b88d7f2d-0624-477d-8f01-28efcef769a5" x1="386" y1="530" x2="504" y2="530"/><line class="b88d7f2d-0624-477d-8f01-28efcef769a5" x1="386" y1="592" x2="504" y2="592"/><circle class="b88d7f2d-0624-477d-8f01-28efcef769a5" cx="800" cy="439" r="18"/></g><g id="b4570e45-9adf-4fed-812f-f3f29d85c41e" data-name="Specialty"><rect class="b88d7f2d-0624-477d-8f01-28efcef769a5" x="2000" y="157" width="509" height="509"/><rect class="b88d7f2d-0624-477d-8f01-28efcef769a5" x="2000" y="157" width="509" height="163"/><rect class="a9f38b1d-7044-4749-b3a2-547124642caa" x="2000" y="157" width="509" height="163"/><circle class="b88d7f2d-0624-477d-8f01-28efcef769a5" cx="2000" cy="439" r="18"/><path class="ecdc037d-1dbc-4ff6-906e-52223fc9a773" d="M2057.38,247.57a10.58,10.58,0,0,0,2.08,5.92c1.92,2.4,5.28,3.76,9.36,3.76,6.16,0,9.84-2.72,9.84-7.2a6,6,0,0,0-3.36-5.6c-1.68-.8-3.68-1.36-12-3.28-7.36-1.6-9.92-2.56-12.88-4.64a18,18,0,0,1-7.76-15.36c0-12.32,9.92-20.08,25.68-20.08,10.16,0,17.92,3.12,22.24,9.12,2,2.64,3,5,4,9.6l-17,1.84c-1-5.2-3.83-7.36-9.91-7.36-4.89,0-8.49,2.64-8.49,6.32,0,2.24,1.2,3.92,3.76,5.12,1.6.72,1.6.72,11,2.64,6.08,1.28,9.93,2.64,13,4.56,5.77,3.6,8.64,9,8.64,16.32,0,6-1.91,11.12-5.59,14.72-4.65,4.48-11.69,6.8-21.05,6.8-6.8,0-13.52-1.44-17.84-3.92a18.91,18.91,0,0,1-8.64-10.24,29.82,29.82,0,0,1-1.76-7.44Z" transform="translate(0)"/><path class="ecdc037d-1dbc-4ff6-906e-52223fc9a773" d="M2103.14,283.73a102.75,102.75,0,0,0,.64-11.68V233a98,98,0,0,0-.64-12.56h15.76v2.72c0,.48-.08,1.12-.08,1.52,4.8-4,9.76-5.68,16.4-5.68,7,0,12.8,2.08,17,6.16,4.24,4.24,6.4,10.56,6.4,18.64s-2.4,14.8-7,19.36c-4.08,4.08-9.92,6.32-16.48,6.32a28.86,28.86,0,0,1-10.8-2.08,18.92,18.92,0,0,1-5.52-3.68c0,.72,0,1.76.08,2.88v5.52a83.59,83.59,0,0,0,.64,11.6Zm36.32-29.36c2.24-2.16,3.52-5.84,3.52-10.4,0-8.16-4.32-12.88-11.84-12.88-6.64,0-12.08,5.84-12.08,13.12,0,7.52,5.36,13.2,12.56,13.2A11.07,11.07,0,0,0,2139.46,254.37Z" transform="translate(0)"/><path class="ecdc037d-1dbc-4ff6-906e-52223fc9a773" d="M2177.62,249.33c.8,6.48,4.56,9.92,10.88,9.92a11.68,11.68,0,0,0,8.08-3,7.83,7.83,0,0,0,2.4-4.08l13.92,3.92c-1.84,4.16-3,6-5.28,8.24-4.56,4.48-11,6.8-18.88,6.8s-14-2.24-18.56-6.8c-4.72-4.8-7.28-11.6-7.28-19.52,0-15.84,10.16-26.32,25.44-26.32,12.48,0,21.2,6.8,24,18.72a58.34,58.34,0,0,1,1.2,10.48,14.52,14.52,0,0,0,.08,1.6Zm20.8-11c-1.12-5.12-4.56-7.84-10.08-7.84-5.68,0-9.12,2.56-10.48,7.84Z" transform="translate(0)"/><path class="ecdc037d-1dbc-4ff6-906e-52223fc9a773" d="M2252.74,238.21a11.27,11.27,0,0,0-2.24-4.72,8.46,8.46,0,0,0-6.72-2.8c-6.48,0-10.32,5.12-10.32,13.92,0,8.64,4.08,14.24,10.48,14.24a9.24,9.24,0,0,0,7.6-3.52,7.87,7.87,0,0,0,1.44-3.68L2267.7,254a24.12,24.12,0,0,1-3.36,7.92c-4,5.92-11.28,9.2-20.56,9.2-7.68,0-14.24-2.4-18.64-6.88-4.64-4.56-7.2-11.6-7.2-19.44,0-16,10.08-26.24,25.68-26.24,12.32,0,20.88,6.08,23.52,16.72Z" transform="translate(0)"/><path class="ecdc037d-1dbc-4ff6-906e-52223fc9a773" d="M2290.66,220.45a79.5,79.5,0,0,0-.64,12.08v24.64a109.14,109.14,0,0,0,.64,12.08h-16.72a89.49,89.49,0,0,0,.64-12.08V232.53a85.78,85.78,0,0,0-.64-12.08Zm-.24-17.76v12h-16.24v-12Z" transform="translate(0)"/><path class="ecdc037d-1dbc-4ff6-906e-52223fc9a773" d="M2331.22,235.81c0-3.84-2.32-5.6-7.6-5.6-5.12,0-7.84,1.68-9,5.6l-15.28-2.48c1.6-4.72,3.36-7.28,6.72-9.68,4.32-3,10.24-4.56,18-4.56,5.92,0,11.68,1.12,14.8,2.8,5.12,2.8,7.36,7.2,7.36,14.4v21.6a92.67,92.67,0,0,0,.56,11.36h-15.52v-3.68c-4.48,3.44-9,4.8-15.52,4.8-6.08,0-10.64-1.44-13.84-4.4a14.4,14.4,0,0,1-4.4-10.88,13.45,13.45,0,0,1,5.84-11.68c4.08-2.88,9.44-4.56,16.64-5.2,3.12-.32,5.52-.4,11.28-.56Zm0,12.08c-7.12.16-10.56.56-13.84,1.6-2.88,1-4.64,3-4.64,5.28,0,2.88,2.4,4.56,6.56,4.56a14.81,14.81,0,0,0,9-3,8.06,8.06,0,0,0,2.88-6.16Z" transform="translate(0)"/><path class="ecdc037d-1dbc-4ff6-906e-52223fc9a773" d="M2371.94,202.69a81.54,81.54,0,0,0-.64,12.08v42.4a95.83,95.83,0,0,0,.64,12.08h-16.72a80.85,80.85,0,0,0,.64-12.08v-42.4a76.86,76.86,0,0,0-.64-12.08Z" transform="translate(0)"/><path class="ecdc037d-1dbc-4ff6-906e-52223fc9a773" d="M2386.66,218.77a81.54,81.54,0,0,0-.64-11h16.32a93,93,0,0,0-.64,11v1.68h2.88a54.68,54.68,0,0,0,7.84-.4v13.28a51.68,51.68,0,0,0-7.36-.48h-3.36v20.48c0,2.24.4,3.36,1.44,4.08a7,7,0,0,0,3.68.88,11,11,0,0,0,5.6-1.44l1.2,12.16a34.41,34.41,0,0,1-11,1.6c-5.44,0-9.2-.88-11.76-2.8-3-2.32-4.16-5-4.16-10.48V232.85h-3a48.36,48.36,0,0,0-7,.48V220a48.24,48.24,0,0,0,7.12.48h2.88Z" transform="translate(0)"/><path class="ecdc037d-1dbc-4ff6-906e-52223fc9a773" d="M2419.78,231.17c-3.44-8-3.76-8.72-4.8-10.72h17.36a53.15,53.15,0,0,0,3.12,10.32l7.36,18.48,7.12-18.16c2.24-5.52,3-7.84,3.44-10.64h17.36c-2,4.16-2,4.16-4.8,10.72l-18.32,42.32c-3.2,7.52-9,11-18.08,11a48.09,48.09,0,0,1-11-1.36l1.76-12.72a12.2,12.2,0,0,0,6.24,1.76,6.79,6.79,0,0,0,6.48-3.76l1.68-3.44Z" transform="translate(0)"/><line class="b88d7f2d-0624-477d-8f01-28efcef769a5" x1="2095" y1="406" x2="2213" y2="406"/><line class="b88d7f2d-0624-477d-8f01-28efcef769a5" x1="2095" y1="468" x2="2213" y2="468"/><line class="b88d7f2d-0624-477d-8f01-28efcef769a5" x1="2095" y1="530" x2="2213" y2="530"/><line class="b88d7f2d-0624-477d-8f01-28efcef769a5" x1="2095" y1="592" x2="2213" y2="592"/></g><g id="bebd3737-7b3b-415b-85fd-8aff0b48ca3b" data-name="JoinTable"><rect class="b88d7f2d-0624-477d-8f01-28efcef769a5" x="1145" y="338" width="509" height="509"/><rect class="b88d7f2d-0624-477d-8f01-28efcef769a5" x="1145" y="338" width="509" height="163"/><rect class="a9f38b1d-7044-4749-b3a2-547124642caa" x="1145" y="338" width="509" height="163"/><circle class="b88d7f2d-0624-477d-8f01-28efcef769a5" cx="1145" cy="620" r="18"/><path class="ecdc037d-1dbc-4ff6-906e-52223fc9a773" d="M1226.06,383.69c-.56,3.52-.64,5.92-.64,12.88v33.36c0,6.56-1.76,11.6-5.52,15.36-4.08,4.16-10.56,6.48-18.4,6.48-8.72,0-15.28-2.48-19.76-7.44-2.32-2.56-3.44-4.56-5.28-9.36l15.6-5.36c1.68,6.24,4.08,8.48,9.2,8.48,5.36,0,7.84-2.64,7.84-8.16V396.65a85.92,85.92,0,0,0-.64-13Z" transform="translate(0)"/><path class="ecdc037d-1dbc-4ff6-906e-52223fc9a773" d="M1233.18,425.77c0-16,10.24-26.16,26.4-26.16s26.4,10.16,26.4,26-10.56,26.48-26.48,26.48C1243.42,452.09,1233.18,441.85,1233.18,425.77Zm15.28-.08c0,8.88,4.16,14.24,11.12,14.24s11-5.2,11-14.08-4.08-14.24-10.88-14.24C1252.62,411.61,1248.46,416.89,1248.46,425.69Z" transform="translate(0)"/><path class="ecdc037d-1dbc-4ff6-906e-52223fc9a773" d="M1309.18,401.45a79.5,79.5,0,0,0-.64,12.08v24.64a109.14,109.14,0,0,0,.64,12.08h-16.72a89.49,89.49,0,0,0,.64-12.08V413.53a85.78,85.78,0,0,0-.64-12.08Zm-.24-17.76v12H1292.7v-12Z" transform="translate(0)"/><path class="ecdc037d-1dbc-4ff6-906e-52223fc9a773" d="M1317.66,450.25a89.49,89.49,0,0,0,.64-12.08V413.53a79.5,79.5,0,0,0-.64-12.08h15.92v3.36c0,.48-.08,1.68-.08,2.24,5-4.8,9.92-6.8,16.48-6.8,5.52,0,9.92,1.52,12.88,4.48,3.2,3.2,4.56,7.12,4.56,13.44v20.08a102.4,102.4,0,0,0,.64,12h-16.64a91,91,0,0,0,.64-12.08v-16.4c0-3.2-.32-4.56-1.28-5.92s-2.88-2.24-5.28-2.24c-4.48,0-8.48,2.8-11.92,8.4v16.16a97.5,97.5,0,0,0,.64,12.08Z" transform="translate(0)"/><path class="ecdc037d-1dbc-4ff6-906e-52223fc9a773" d="M1411.26,438.17a91,91,0,0,0,.64,12.08h-17.68a88.73,88.73,0,0,0,.64-12.08V397.85h-9.44a108.26,108.26,0,0,0-12.08.56V383.13a109.65,109.65,0,0,0,11.92.56h35a105.81,105.81,0,0,0,12.48-.56v15.28a103.16,103.16,0,0,0-12.48-.56h-9Z" transform="translate(0)"/><path class="ecdc037d-1dbc-4ff6-906e-52223fc9a773" d="M1461.5,416.81c0-3.84-2.32-5.6-7.6-5.6-5.12,0-7.84,1.68-9,5.6l-15.28-2.48c1.6-4.72,3.36-7.28,6.72-9.68,4.32-3,10.24-4.56,18-4.56,5.92,0,11.68,1.12,14.8,2.8,5.12,2.8,7.36,7.2,7.36,14.4v21.6a92.67,92.67,0,0,0,.56,11.36H1461.5v-3.68c-4.48,3.44-9,4.8-15.52,4.8-6.08,0-10.64-1.44-13.84-4.4a14.4,14.4,0,0,1-4.4-10.88,13.45,13.45,0,0,1,5.84-11.68c4.08-2.88,9.44-4.56,16.64-5.2,3.12-.32,5.52-.4,11.28-.56Zm0,12.08c-7.12.16-10.56.56-13.84,1.6-2.88,1-4.64,3-4.64,5.28,0,2.88,2.4,4.56,6.56,4.56a14.81,14.81,0,0,0,9-3,8.06,8.06,0,0,0,2.88-6.16Z" transform="translate(0)"/><path class="ecdc037d-1dbc-4ff6-906e-52223fc9a773" d="M1485.5,450.25a94.05,94.05,0,0,0,.64-12.56V396.25a89.57,89.57,0,0,0-.64-12.56h16.24a106.41,106.41,0,0,0-.56,12.56V403c0,1.2,0,1.92-.08,3,4.72-4.16,9.84-6,16.48-6,14.56,0,23,9.28,23,25.12,0,8.56-2.48,15.44-7.12,20.32-4.16,4.16-9.6,6.24-16.64,6.24-6.64,0-10.56-1.36-15.76-5.68,0,.24.08,1.28.08,1.68v2.56Zm28.32-38.08c-7.28,0-12.48,5.6-12.48,13.36,0,7.92,5.28,13.92,12.16,13.92s11.6-5.68,11.6-14.16C1525.1,417.13,1520.86,412.17,1513.82,412.17Z" transform="translate(0)"/><path class="ecdc037d-1dbc-4ff6-906e-52223fc9a773" d="M1563.74,383.69a81.54,81.54,0,0,0-.64,12.08v42.4a95.83,95.83,0,0,0,.64,12.08H1547a80.85,80.85,0,0,0,.64-12.08v-42.4a76.86,76.86,0,0,0-.64-12.08Z" transform="translate(0)"/><path class="ecdc037d-1dbc-4ff6-906e-52223fc9a773" d="M1584.78,430.33c.8,6.48,4.56,9.92,10.88,9.92a11.68,11.68,0,0,0,8.08-3,7.83,7.83,0,0,0,2.4-4.08l13.92,3.92c-1.84,4.16-3,6-5.28,8.24-4.56,4.48-11,6.8-18.88,6.8s-14-2.24-18.56-6.8c-4.72-4.8-7.28-11.6-7.28-19.52,0-15.84,10.16-26.32,25.44-26.32,12.48,0,21.2,6.8,24,18.72a58.34,58.34,0,0,1,1.2,10.48,14.52,14.52,0,0,0,.08,1.6Zm20.8-11c-1.12-5.12-4.56-7.84-10.08-7.84-5.68,0-9.12,2.56-10.48,7.84Z" transform="translate(0)"/><line class="b88d7f2d-0624-477d-8f01-28efcef769a5" x1="1240" y1="587" x2="1358" y2="587"/><line class="b88d7f2d-0624-477d-8f01-28efcef769a5" x1="1240" y1="649" x2="1358" y2="649"/><line class="b88d7f2d-0624-477d-8f01-28efcef769a5" x1="1240" y1="711" x2="1358" y2="711"/><line class="b88d7f2d-0624-477d-8f01-28efcef769a5" x1="1240" y1="773" x2="1358" y2="773"/><circle class="b88d7f2d-0624-477d-8f01-28efcef769a5" cx="1654" cy="620" r="18"/></g><g id="f694a5cc-d2f9-429e-8df0-19c01482433a" data-name="arrows"><path class="ecdc037d-1dbc-4ff6-906e-52223fc9a773" d="M1092.87,601.67l-27.29-50.78a9.33,9.33,0,0,0-16.14-.49l-10.08,16.3L862.17,457.07a9.32,9.32,0,0,0-9.8,15.85l177.18,109.63-10.44,16.87a9.32,9.32,0,0,0,7.64,14.22l57.62,1.76a9.33,9.33,0,0,0,8.5-13.73Z" transform="translate(0)"/><path class="ecdc037d-1dbc-4ff6-906e-52223fc9a773" d="M1707.13,601.67l27.29-50.78a9.33,9.33,0,0,1,16.14-.49l10.08,16.3,177.19-109.63a9.32,9.32,0,0,1,9.8,15.85L1770.45,582.55l10.44,16.87a9.32,9.32,0,0,1-7.64,14.22l-57.62,1.76a9.33,9.33,0,0,1-8.5-13.73Z" transform="translate(0)"/></g></svg>